<svg width="325" height="259" viewBox="0 0 325 259" fill="none" xmlns="http://www.w3.org/2000/svg">
<path d="M101.278 46.7339C39.1058 56.3788 8.34152 111.215 4.38867 149.907C-0.440597 197.139 20.5041 222.103 59.5854 218.863C101.958 215.343 150.698 210.548 203.283 218.863C255.886 227.179 295.236 234.801 314.553 184.179C333.87 133.557 308.472 37.1264 237.303 20.1775C184.878 7.68587 166.026 36.6956 101.278 46.7339Z" fill="#F1F1F1"/>
<path d="M245.745 233.939C245.745 233.939 246.21 199.48 235.317 189.254C224.425 179.028 195.145 133.313 218.826 122.058C242.508 110.802 249.626 152.098 264.812 166.087C279.997 180.077 267.137 232.666 267.137 232.666L245.745 233.939Z" fill="#E4E4E4"/>
<path d="M260.626 240.812L259.553 240.7C259.588 240.288 263.505 199.61 256.44 181.351C253.167 172.904 246.657 164.795 239.735 156.199C231.4 145.842 222.796 135.148 218.307 122.226L219.309 121.852C223.727 134.587 232.276 145.205 240.54 155.487C247.515 164.14 254.079 172.324 257.424 180.939C264.614 199.442 260.679 240.419 260.626 240.812Z" fill="#CACACA"/>
<path d="M236.766 153.109C235.8 150.337 235.853 144.401 235.907 138.108C235.961 132.059 236.014 125.204 234.888 123.5L235.764 122.863C237.07 124.867 237.016 131.31 236.962 138.127C236.909 144.045 236.873 150.15 237.767 152.735L236.766 153.109Z" fill="#CACACA"/>
<path d="M241.935 158.933C241.094 157.885 235.853 155.6 230.327 153.184C219.076 148.296 210.401 144.288 209.525 141.235L210.545 140.917C211.349 143.726 222.564 148.595 230.738 152.154C237.571 155.132 241.81 157.004 242.758 158.222L241.935 158.933Z" fill="#CACACA"/>
<path d="M253.328 174.702C252.667 173.354 252.219 168.335 251.576 160.207C251.021 153.184 250.395 145.243 249.554 143.67L250.485 143.108C251.45 144.887 252.023 152.285 252.649 160.113C253.15 166.424 253.65 172.942 254.276 174.178L253.328 174.702Z" fill="#CACACA"/>
<path d="M258.265 187.381C256.458 184.366 247.569 182.006 239.717 179.927C231.668 177.792 224.067 175.789 222.224 172.942L223.101 172.305C224.728 174.796 232.491 176.856 239.985 178.841C248.803 181.182 257.138 183.392 259.177 186.782L258.265 187.381Z" fill="#CACACA"/>
<path d="M260.179 216.129C259.41 209.536 251.54 205.772 245.798 203.019C243.777 202.064 242.042 201.221 241.04 200.435L241.684 199.536C242.597 200.247 244.296 201.053 246.245 201.989C251.879 204.686 260.393 208.769 261.234 215.979L260.179 216.129Z" fill="#CACACA"/>
<path d="M261.502 205.098L260.429 205.023C260.59 202.588 262.736 197.363 265.008 191.82C267.423 185.902 270.177 179.197 269.98 176.837L271.053 176.744C271.286 179.366 268.71 185.639 266.01 192.25C263.863 197.476 261.663 202.851 261.502 205.098Z" fill="#CACACA"/>
<path d="M255.725 232.347C268.46 213.526 253.811 151.124 282.823 125.822C311.816 100.52 332.26 115.11 313.694 150.993C295.128 186.876 288.815 229.051 278.745 232.947C268.675 236.842 255.725 232.347 255.725 232.347Z" fill="#E4E4E4"/>
<path d="M266.027 241L264.972 240.794C265.026 240.494 270.427 210.567 281.982 171.144C289.566 145.262 298.902 133.07 305.073 124.998C308.507 120.503 310.993 117.245 311.941 113.499L312.979 113.78C311.977 117.75 309.437 121.084 305.914 125.691C299.796 133.688 290.549 145.786 283.019 171.462C271.483 210.847 266.081 240.719 266.027 241Z" fill="#CACACA"/>
<path d="M288.349 155.955L287.509 155.244C290.907 150.805 297.972 147.359 304.823 144.007C311.798 140.598 318.398 137.377 319.561 133.763L320.58 134.119C319.257 138.183 312.478 141.497 305.288 145.018C298.545 148.333 291.587 151.742 288.349 155.955Z" fill="#CACACA"/>
<path d="M283.019 171.481L282 171.163C282.769 168.522 282.662 160.638 282.554 152.304C282.357 136.741 282.411 125.541 284.915 123.35L285.613 124.212C283.305 126.234 283.484 140.692 283.627 152.285C283.735 161.068 283.842 168.653 283.019 171.481Z" fill="#CACACA"/>
<path d="M275.883 197.457L274.845 197.157C276.079 192.494 282.93 187.531 290.192 182.306C296.577 177.699 303.195 172.923 305.001 168.747L305.985 169.215C304.071 173.672 297.328 178.541 290.818 183.242C284.021 188.111 277.01 193.187 275.883 197.457Z" fill="#CACACA"/>
<path d="M273.665 206.277L272.628 205.997C273.754 201.296 270.195 186.763 267.602 176.163C265.688 168.372 264.615 163.877 264.847 162.529L265.902 162.716C265.706 163.896 267.136 169.72 268.639 175.882C271.411 187.212 274.845 201.296 273.665 206.277Z" fill="#CACACA"/>
<path d="M268.836 227.347L267.78 227.103C268.335 224.444 273.092 221.785 278.601 218.713C283.735 215.848 289.548 212.608 290.514 209.705L291.533 210.08C290.424 213.376 284.665 216.597 279.102 219.706C274.291 222.403 269.283 225.193 268.836 227.347Z" fill="#CACACA"/>
<path d="M93.3366 170.695C93.3366 170.695 93.3008 152.004 92.9073 136.497C92.5138 120.99 106.537 103.929 109.828 95.0895C113.119 86.2311 109.667 72.6907 121.543 66.6978C121.543 66.6978 114.567 79.7325 120.881 86.4933C127.195 93.2541 119.111 116.514 117.859 126.496C116.606 136.441 109.416 162.866 93.3366 170.695Z" fill="#E4E4E4"/>
<path d="M76.6486 201.465C76.6486 201.465 68.0632 159.701 54.577 141.966C41.0909 124.23 42.0031 126.927 22.3104 122.582C2.63558 118.237 3.70875 133.351 3.70875 133.351C3.70875 133.351 14.7266 126.796 21.0762 135.448C27.4437 144.101 29.2681 155.506 41.7348 173.429C54.2014 191.352 76.6486 201.465 76.6486 201.465Z" fill="#E4E4E4"/>
<path d="M34.6876 74.751C38.6404 89.8832 68.6177 97.8614 75.5039 113.949C82.39 130.036 79.4209 168.953 79.4209 168.953C79.4209 168.953 60.6941 152.042 59.4242 137.097C58.1543 122.152 48.4063 116.215 40.8583 101.008C33.3282 85.7818 34.6876 74.751 34.6876 74.751Z" fill="#E4E4E4"/>
<path d="M87.5592 239.558L86.486 239.633C86.4681 239.202 83.6958 196.502 78.9023 169.065L78.5267 166.912C73.8584 140.149 71.0503 123.987 56.8844 109.66C42.325 94.9023 34.2763 75.1817 34.2047 74.9757L35.1885 74.5449C35.26 74.7322 43.2372 94.2656 57.6356 108.855C72.034 123.425 74.8779 139.719 79.582 166.706L79.9576 168.859C84.769 196.352 87.5413 239.127 87.5592 239.558Z" fill="#E4E4E4"/>
<path d="M85.4307 225.343C84.1787 211.653 72.6421 195.64 60.4437 178.691C53.1819 168.597 45.6697 158.184 39.3738 147.153L40.286 146.573C46.5461 157.547 54.0404 167.941 61.2844 177.998C73.5901 195.078 85.1982 211.222 86.486 225.231L85.4307 225.343Z" fill="#CACACA"/>
<path d="M83.1771 200.997C81.782 189.329 86.8259 180.733 91.6909 172.436C94.7852 167.155 97.9868 161.705 99.4893 155.506C103.317 139.719 106.214 109.866 106.232 109.566L107.306 109.679C107.27 109.978 104.372 139.906 100.527 155.769C98.9885 162.136 95.7332 167.661 92.6031 173.017C87.6129 181.538 82.8909 189.573 84.2324 200.847L83.1771 200.997Z" fill="#CACACA"/>
<path d="M138.213 180.602C138.213 180.602 134.26 219.556 130.862 224.051C127.481 228.546 116.034 230.793 116.034 236.786C116.034 242.779 211.189 242.03 211.904 236.786C212.619 231.542 202.854 227.797 199.151 224.051C195.449 220.306 191.156 180.602 191.156 180.602H138.213Z" fill="#414141"/>
<path d="M130.897 232.104L130.844 230.98C131.255 230.961 171.642 228.751 199.169 230.98L199.08 232.104C171.624 229.894 131.309 232.085 130.897 232.104Z" fill="#CACACA"/>
<path d="M60.0323 41.415C53.164 44.2991 52.0909 183.299 59.9608 190.79C67.8307 198.281 263.148 196.783 266.01 190.79C268.871 184.797 274.989 47.7264 263.792 40.2351C252.595 32.7439 76.738 34.3733 60.0323 41.415Z" fill="#414141"/>
<path d="M66.4713 49.4119C61.0697 53.4571 62.8941 162.323 66.4713 166.818C70.0486 171.313 252.488 171.313 257.496 166.818C262.504 162.323 261.073 54.1126 257.496 49.4119C253.919 44.7111 72.1949 45.1232 66.4713 49.4119Z" fill="#E4E4E4"/>
<path d="M185.236 170.189C185.236 170.189 185.236 155.581 187.74 150.338C190.244 145.094 199.902 127.864 203.837 109.885C207.772 91.906 203.122 46.9587 197.756 46.9587C192.39 46.9587 192.748 80.2946 192.748 80.2946C192.748 80.2946 193.106 38.3438 186.667 38.3438C180.228 38.3438 179.87 77.6727 179.87 77.6727C179.87 77.6727 180.228 30.8525 172.715 30.8525C165.203 30.8525 165.561 77.2981 165.561 77.2981C165.561 77.2981 165.257 39.0929 158.245 39.0929C151.234 39.0929 152.683 97.5244 150.894 114.754C149.106 131.984 158.245 170.189 158.245 170.189H185.236Z" fill="white"/>
<path d="M201.297 119.249C202.281 116.196 203.14 113.05 203.837 109.885C204.714 105.877 205.161 100.539 205.268 94.6587C188.509 97.5241 161.858 108.443 151.037 113.05C150.984 113.649 150.93 114.211 150.876 114.735C150.805 115.428 150.751 116.177 150.715 116.926C160.302 120.485 183.268 127.264 201.297 119.249Z" fill="#F1F1F1"/>
<path d="M88.5966 6.88038C85.7169 11.7122 85.073 105.765 88.5966 112.076C92.1202 118.387 228.252 114.23 234.28 106.045C240.307 97.8613 236.784 18.96 234.28 8.9592C231.776 -1.00413 93.6226 -1.52851 88.5966 6.88038Z" fill="#CACACA"/>
<path d="M161.912 86.8677C148.211 86.8677 90.6357 10.476 88.1853 7.21735L89.026 6.52441C89.6162 7.31099 148.712 85.7441 161.912 85.7441C175.112 85.7441 233.296 9.40853 233.868 8.64068L234.709 9.33362C232.294 12.4987 175.613 86.8677 161.912 86.8677Z" fill="#696969"/>
<path d="M88.9901 112.469L88.2031 111.701C88.4714 111.402 115.515 80.6502 136.728 65.4243L137.336 66.3607C116.231 81.5117 89.2584 112.17 88.9901 112.469Z" fill="#696969"/>
<path d="M233.886 106.457C210.58 80.2568 189.922 63.2705 189.725 63.1019L190.387 62.2217C190.602 62.3902 211.314 79.4328 234.673 105.708L233.886 106.457Z" fill="#696969"/>
<path d="M150.322 74.1143C143.167 74.1143 148.39 90.7822 146.244 98.648C144.097 106.514 137.658 113.63 139.447 126.74C141.235 139.85 151.252 148.465 153.398 154.458C155.544 160.451 153.398 170.189 153.398 170.189H177.366C177.366 170.189 175.935 160.825 175.219 141.348C174.504 121.871 160.248 118.125 158.245 115.129C156.26 112.132 161.983 104.266 161.626 94.1533C161.268 84.0401 154.06 74.1143 150.322 74.1143Z" fill="white"/>
<path d="M163.665 189.123C163.486 189.123 163.307 189.123 163.128 189.104C159.336 188.786 158.102 185.771 158.192 183.298C158.299 180.358 160.195 177.324 163.182 177.324C166.008 177.324 168.119 178.354 169.156 180.208C170.068 181.875 169.997 184.066 168.977 185.939C167.85 187.924 165.865 189.123 163.665 189.123ZM163.182 178.429C160.857 178.429 159.354 180.92 159.265 183.336C159.193 185.415 160.177 187.737 163.218 187.98C163.361 187.999 163.522 187.999 163.665 187.999C165.489 187.999 167.117 187.007 168.029 185.34C168.87 183.823 168.941 182.062 168.208 180.733C167.385 179.253 165.597 178.429 163.182 178.429Z" fill="#CACACA"/>
<path d="M76.3803 3.99696C94.9998 7.23691 97.1998 20.3466 96.8421 37.052C96.5022 53.7574 106.214 64.6571 112.797 64.6571C112.797 64.6571 104.122 67.9345 97.5396 64.6571C90.9396 61.3797 84.3575 70.4628 67.3657 66.1179C50.3738 61.7543 35.099 48.8319 42.3966 26.4144C49.6762 3.99696 63.8957 1.80578 76.3803 3.99696Z" fill="#7D7D7D"/>
<path d="M67.7949 30.3092C67.7949 30.3092 74.2339 16.6751 80.673 23.5483C87.112 30.4215 71.2291 42.5011 68.2242 50.1796C68.2242 50.1796 51.4827 33.3057 58.351 23.5483C65.2193 13.791 67.7949 30.3092 67.7949 30.3092Z" fill="white"/>
<path d="M202.084 79.3204C202.084 79.3204 208.524 65.6864 214.963 72.5596C221.402 79.4328 205.519 91.5123 202.514 99.1908C202.514 99.1908 185.772 82.3169 192.641 72.5596C199.509 62.8023 202.084 79.3204 202.084 79.3204Z" fill="#696969"/>
<path d="M210.616 53.5134C228.914 56.7159 231.078 69.582 230.738 86.0065C230.398 102.431 239.949 113.143 246.424 113.143C246.424 113.143 237.892 116.365 231.418 113.143C224.943 109.922 218.45 118.856 201.745 114.567C185.039 110.278 170.032 97.5617 177.187 75.5376C184.359 53.5134 198.346 51.3784 210.616 53.5134Z" fill="white"/>
<path d="M202.084 79.3209C202.084 79.3209 208.523 65.6869 214.962 72.5601C221.401 79.4332 205.519 91.5128 202.514 99.1913C202.514 99.1913 185.772 82.3174 192.64 72.5601C199.509 62.8027 202.084 79.3209 202.084 79.3209Z" fill="#7D7D7D"/>
<path d="M147.714 220.921C147.599 222.096 147.423 223.245 147.177 224.362C144.028 238.601 129.905 248.474 104.706 250.268C53.825 253.886 25.7925 250.67 15.808 225.343C13.55 219.618 12.6742 212.221 12.7977 204.14C13.2128 176.434 25.3008 140.607 33.4732 136.097C44.0332 130.267 51.5213 133.283 51.5213 133.283C68.6096 137.101 95.8738 189.564 117.187 191.574C138.498 193.584 149.205 205.307 147.714 220.921Z" fill="#979797"/>
<path d="M35.7756 168.056C35.7756 168.056 48.4479 178.709 52.8639 190.569C57.2799 202.428 57.2799 212.88 66.496 214.89C75.7121 216.9 92.9931 218.106 110.466 212.679C127.938 207.251 128.322 200.819 109.89 197.403C91.4577 193.986 71.2974 175.695 65.5375 162.629C59.7775 149.563 59.969 144.338 56.3213 140.921C52.6737 137.505 47.2967 136.298 41.9209 142.931C36.5452 149.563 33.4719 160.619 35.7756 168.056Z" fill="#696969"/>
<path d="M74.2916 132.498C74.5127 132.182 74.7856 131.898 74.9956 131.578C75.9369 130.147 74.9055 128.524 73.7307 127.686C72.9328 127.117 72.8142 126.664 73.0094 125.621C73.1638 124.796 73.6109 124.249 73.459 123.389C73.333 122.671 73.0328 121.646 72.4967 121.179C71.9483 120.7 71.1405 120.739 70.508 120.457C68.9393 119.758 70.3968 118.449 69.7273 117.222C68.7243 115.384 65.8573 115.825 64.1515 115.554C64.1638 115.556 64.1725 115.552 64.1749 115.539C62.7099 114.929 62.4542 113.318 60.5755 113.645C59.6885 113.799 59.0734 114.382 58.3335 114.839C57.0501 115.631 55.9692 114.542 54.7266 115.031C53.3221 115.585 52.2018 116.91 51.8065 118.424C51.2568 120.532 50.0907 119.915 48.5035 120.672C47.661 121.074 46.6123 121.355 46.7877 122.59C46.8816 123.249 47.4375 123.815 47.4819 124.469C47.5375 125.303 46.784 125.776 46.3406 126.397C45.8638 127.065 45.5525 128.04 45.8749 128.842C46.222 129.708 47.1941 130.134 47.2398 131.189C47.3028 132.659 45.3277 133.865 46.133 135.471C46.6654 136.532 47.8191 136.532 48.5862 137.211C49.1013 137.668 49.0284 138.349 48.9691 138.959C48.8073 140.633 49.5497 142.117 51.4236 141.731C52.7885 141.449 53.7853 141.287 54.755 142.517C55.6012 143.59 56.4325 144.122 57.8629 143.995C58.772 143.914 59.6144 143.519 60.484 143.264C61.2993 143.025 61.5501 143.167 62.2813 143.404C63.8241 143.903 64.7172 142.363 66.1513 142.382C66.7022 142.39 67.0642 142.825 67.6262 142.923C68.2784 143.037 68.9911 142.812 69.5495 142.468C70.2832 142.015 70.6303 141.479 70.8798 140.639C71.0948 139.915 71.2492 139.658 71.9174 139.363C73.6109 138.614 74.5324 137.794 74.4213 135.723C74.3768 134.903 73.8197 134.246 73.9049 133.44C73.9444 133.073 74.0989 132.773 74.2916 132.498Z" fill="#2D2D2D"/>
<path d="M136.066 253.416C136.066 256.265 110.793 258.576 79.6169 258.576C48.4407 258.576 23.1677 256.267 23.1677 253.416C23.1677 250.566 48.4407 248.257 79.6169 248.257C110.793 248.258 136.066 250.568 136.066 253.416Z" fill="#E4E4E4"/>
<path d="M74.561 158.543C74.561 158.543 85.2495 170.335 89.6012 171.474L82.6246 176.097L73.3442 170.67C73.3455 170.67 69.8893 161.022 74.561 158.543Z" fill="#CACACA"/>
<path d="M74.5612 158.543L74.4711 158.632C74.4723 158.633 77.1454 161.583 80.3656 164.676C81.9751 166.223 83.7218 167.807 85.3412 169.077C86.1515 169.712 86.9284 170.268 87.6436 170.704C88.3588 171.138 89.0098 171.452 89.5718 171.6L89.6015 171.474L89.536 171.366L82.6224 175.947L73.4063 170.557L73.3458 170.67L73.4619 170.625C73.4619 170.625 73.4569 170.612 73.4483 170.587C73.3149 170.206 72.2378 166.999 72.239 163.938C72.239 162.835 72.3786 161.752 72.7467 160.829C73.1148 159.906 73.7052 159.144 74.6181 158.658L74.5612 158.543L74.4711 158.632L74.5612 158.543L74.5056 158.428C73.5348 158.942 72.9011 159.762 72.5182 160.73C72.134 161.697 71.9919 162.812 71.9919 163.938C71.9932 167.268 73.2284 170.709 73.2309 170.716L73.2469 170.76L82.631 176.249L89.9128 171.423L89.6324 171.349C89.1062 171.212 88.4712 170.908 87.7684 170.48C85.3066 168.982 82.0208 165.972 79.3589 163.34C78.0273 162.024 76.8501 160.802 76.0065 159.91C75.584 159.464 75.2456 159.099 75.0121 158.847C74.896 158.72 74.8058 158.622 74.7441 158.556C74.6835 158.489 74.6514 158.454 74.6514 158.454L74.5884 158.384L74.5069 158.428L74.5612 158.543Z" fill="#696969"/>
<path d="M80.2245 183.836C80.2245 183.836 97.2807 181.055 107.778 186.013C118.274 190.971 115.458 199.28 112.13 206.381C108.801 213.483 105.73 216.164 105.73 216.164L99.3299 213.35C99.3299 213.35 101.634 201.29 105.474 195.259C105.474 195.259 90.498 203.568 82.4331 203.165C74.3695 202.763 74.4967 186.951 74.4967 186.951L80.2245 183.836Z" fill="#2D2D2D"/>
<path d="M55.7297 145.713C55.7297 145.713 51.3285 148.157 48.0008 149.497C44.6731 150.837 43.649 155.997 45.5686 159.748C47.4882 163.501 52.2883 173.082 54.3363 178.777C56.3844 184.472 57.569 189.162 57.569 189.162C57.569 189.162 68.7368 191.407 74.9451 189.061C81.1534 186.716 80.2257 183.835 80.2257 183.835C80.2257 183.835 76.226 169.128 75.6492 165.175C75.6492 165.175 77.3772 161.088 75.9691 157.471C74.5609 153.852 70.9133 152.378 69.1209 150.167C67.3286 147.957 60.3853 145.079 55.7297 145.713Z" fill="white"/>
<path d="M69.3148 130.486C69.169 132.495 68.9998 134.514 69.2604 137.32C69.468 139.611 68.4155 141.428 65.3744 144.002C65.3744 144.002 64.2602 144.106 63.0015 143.72C62.978 143.72 62.9558 143.712 62.9323 143.704L63.2164 145.908L63.2782 146.375L63.3165 146.712C63.3165 146.712 63.3622 148.127 61.7798 148.529C60.1901 148.931 56.9266 147.322 55.7284 145.715C55.7284 145.715 55.9198 139.685 55.4369 137.321C55.4369 137.321 53.9546 134.757 53.1332 131.243C52.3191 127.722 54.8378 124.297 57.181 123.035C59.5317 121.78 66.6281 121.74 68.7861 126.87C68.7849 126.868 69.4618 128.475 69.3148 130.486Z" fill="#CACACA"/>
<path d="M69.315 130.485L69.1914 130.475C69.1013 131.722 69.0012 132.976 69.0012 134.423C69.0012 135.307 69.0383 136.263 69.1383 137.331C69.1544 137.512 69.163 137.689 69.163 137.864C69.1618 138.861 68.8937 139.773 68.2774 140.74C67.6597 141.706 66.6913 142.722 65.2979 143.9L65.3758 144.001L65.3647 143.872H65.3597C65.3325 143.875 65.2053 143.884 65.0052 143.884C64.5827 143.884 63.8379 143.84 63.0375 143.594L63.0202 143.589H63.0029V143.602L63.0041 143.589H63.0029V143.602L63.0041 143.589L62.9967 143.587L62.9732 143.58L62.7855 143.514L63.0967 145.922L63.1585 146.388L63.2808 146.37L63.1585 146.386L63.1968 146.723L63.3191 146.708L63.1956 146.71V146.712V146.719C63.1956 146.776 63.1857 147.113 63.0029 147.471C62.9115 147.651 62.7768 147.835 62.578 148C62.3778 148.164 62.1123 148.307 61.754 148.398C61.5984 148.438 61.4205 148.457 61.2278 148.456C60.4101 148.457 59.3132 148.104 58.2991 147.57C57.2837 147.038 56.3449 146.324 55.8286 145.629L55.731 145.71L55.8545 145.713C55.8545 145.712 55.8916 144.53 55.8916 143.007C55.8916 142.047 55.8768 140.952 55.8274 139.93C55.7779 138.908 55.6964 137.961 55.5593 137.289L55.5544 137.268L55.5432 137.25C55.5432 137.25 55.5383 137.241 55.5272 137.221C55.3654 136.933 54.019 134.482 53.2531 131.207C53.1481 130.756 53.0999 130.306 53.0999 129.861C53.0999 128.39 53.6311 126.981 54.4167 125.802C55.2011 124.624 56.2399 123.68 57.2368 123.143C57.6147 122.941 58.1311 122.768 58.7351 122.646C59.3391 122.525 60.0334 122.455 60.7683 122.455C62.2321 122.455 63.8601 122.734 65.2942 123.431C66.7284 124.13 67.9673 125.242 68.6714 126.915L68.6726 126.918C68.701 126.986 69.2124 128.255 69.2112 129.906C69.2112 130.09 69.205 130.278 69.1914 130.471L69.315 130.485L69.4385 130.496C69.4533 130.297 69.4595 130.101 69.4595 129.911C69.4595 128.15 68.9024 126.826 68.8987 126.815C68.1674 125.075 66.8741 123.917 65.3992 123.201C63.9231 122.483 62.2617 122.2 60.7683 122.2C60.0185 122.2 59.3107 122.271 58.6894 122.397C58.0681 122.522 57.5332 122.699 57.1256 122.918C56.0868 123.478 55.0244 124.446 54.2154 125.659C53.4075 126.871 52.8554 128.33 52.8541 129.866C52.8541 130.33 52.9048 130.801 53.0135 131.273C53.8398 134.807 55.3283 137.38 55.332 137.387L55.4382 137.32L55.3172 137.347C55.4494 137.992 55.5321 138.932 55.5803 139.947C55.6285 140.962 55.6433 142.054 55.6433 143.011C55.6433 143.77 55.6334 144.445 55.6248 144.93C55.6198 145.172 55.6149 145.367 55.6124 145.501C55.6087 145.636 55.6062 145.708 55.6062 145.708L55.605 145.755L55.6322 145.792C56.1868 146.536 57.1466 147.26 58.1867 147.806C59.2267 148.351 60.3434 148.717 61.2266 148.719C61.4353 148.719 61.6317 148.698 61.8109 148.653C62.2 148.554 62.5001 148.394 62.7286 148.207C63.072 147.925 63.2512 147.581 63.3426 147.296C63.434 147.012 63.4414 146.785 63.4414 146.722V146.707V146.7L63.4018 146.355L63.3401 145.888L63.056 143.686L62.9337 143.703L62.8942 143.825C62.9176 143.833 62.951 143.847 63.0029 143.849V143.719L62.9683 143.843C63.8008 144.098 64.5679 144.144 65.0064 144.144C65.2436 144.144 65.3844 144.131 65.3881 144.131L65.4252 144.127L65.4548 144.102C66.8581 142.915 67.845 141.884 68.4849 140.885C69.1247 139.885 69.4138 138.913 69.4125 137.865C69.4125 137.682 69.4039 137.497 69.3866 137.309C69.2878 136.249 69.2507 135.302 69.2507 134.426C69.2507 132.991 69.3495 131.745 69.4409 130.497L69.315 130.485Z" fill="#696969"/>
<path d="M55.9929 134.226C55.9929 134.226 56.0065 134.242 56.0325 134.272C56.1202 134.374 56.3415 134.639 56.5393 134.941C56.7383 135.243 56.9114 135.584 56.9102 135.826C56.9102 135.863 56.9064 135.898 56.8978 135.931C56.8422 136.145 56.7272 136.268 56.6209 136.391C56.5146 136.513 56.4157 136.638 56.4157 136.846C56.4157 136.946 56.4379 137.064 56.4911 137.207C56.7556 137.938 56.925 138.24 56.9262 138.242C56.9349 138.257 56.9534 138.262 56.9683 138.253C56.9831 138.244 56.988 138.225 56.9794 138.209C56.9794 138.209 56.9695 138.191 56.9497 138.152C56.8904 138.035 56.747 137.729 56.5492 137.184C56.4985 137.044 56.4787 136.934 56.4787 136.845C56.4787 136.661 56.5616 136.557 56.6679 136.434C56.7729 136.312 56.899 136.178 56.9584 135.948C56.9683 135.909 56.9732 135.869 56.9732 135.826C56.972 135.517 56.7371 135.112 56.5047 134.777C56.2723 134.444 56.0399 134.184 56.0387 134.184C56.0275 134.171 56.0078 134.169 55.9954 134.182C55.9818 134.193 55.9806 134.213 55.9929 134.226Z" fill="#414141"/>
<path d="M68.5917 131.24C68.5917 131.24 67.6799 130.938 66.4554 131.842C66.4554 131.842 66.6717 130.812 67.392 130.686C68.1123 130.562 68.5917 131.24 68.5917 131.24Z" fill="#414141"/>
<path d="M63.672 132.154C63.672 132.154 63.0184 131.324 62.0621 131.47C61.1057 131.616 60.3829 132.007 60.3829 132.007C60.3829 132.007 60.803 131.03 61.7359 130.81C62.67 130.592 63.4162 131.153 63.672 132.154Z" fill="#414141"/>
<path d="M66.7802 133.777C66.7468 134.283 66.8742 134.703 67.0658 134.717C67.2575 134.732 67.4405 134.333 67.4751 133.827C67.5085 133.322 67.3812 132.901 67.1895 132.887C66.9978 132.874 66.8136 133.272 66.7802 133.777Z" fill="#414141"/>
<path d="M62.5804 134.381C62.547 134.886 62.6744 135.307 62.866 135.321C63.0577 135.335 63.2407 134.937 63.2753 134.431C63.3087 133.925 63.1813 133.505 62.9897 133.491C62.7968 133.476 62.6138 133.875 62.5804 134.381Z" fill="#414141"/>
<path d="M65.6205 134.472C65.6205 134.472 65.6896 134.599 65.7947 134.798C65.9516 135.097 66.1863 135.561 66.3828 136.009C66.5792 136.455 66.7337 136.891 66.7337 137.116C66.7337 137.182 66.7201 137.227 66.6991 137.248C66.6287 137.322 66.4903 137.403 66.3247 137.481C66.0764 137.596 65.765 137.705 65.5154 137.782C65.3906 137.821 65.2819 137.853 65.2041 137.875C65.1262 137.897 65.0805 137.91 65.0805 137.91C65.0645 137.914 65.0546 137.932 65.0583 137.949C65.062 137.966 65.0793 137.976 65.0953 137.972C65.0953 137.972 65.4277 137.884 65.7996 137.756C65.9849 137.692 66.1801 137.618 66.3494 137.54C66.5187 137.461 66.6608 137.38 66.7423 137.295C66.7819 137.253 66.7955 137.191 66.7955 137.116C66.7955 136.948 66.7238 136.702 66.6188 136.42C66.3037 135.579 65.6748 134.44 65.6748 134.44C65.6662 134.424 65.6476 134.419 65.6328 134.428C65.618 134.436 65.6118 134.457 65.6205 134.472Z" fill="#414141"/>
<path d="M65.26 139.181C65.26 139.181 65.2254 139.186 65.1612 139.191C65.0969 139.196 65.0055 139.201 64.8931 139.201C64.4619 139.201 63.7279 139.123 63.1052 138.666C63.0916 138.656 63.0719 138.66 63.062 138.674C63.0521 138.688 63.0558 138.709 63.0694 138.719C63.7082 139.186 64.4545 139.266 64.8918 139.266C65.1217 139.266 65.2662 139.244 65.2674 139.244C65.2847 139.242 65.2959 139.225 65.2934 139.208C65.2922 139.191 65.2761 139.178 65.26 139.181Z" fill="#414141"/>
<path d="M59.2008 128.459C59.2008 128.459 59.7282 129.514 59.4404 131.876C59.1526 134.237 59.0081 133.384 58.8166 134.439C58.6251 135.494 59.1526 136.298 58.4806 137.152C57.8086 138.007 58.8166 134.89 56.7043 133.031C54.5921 131.171 55.1208 136.649 55.6482 137.704C56.1757 138.759 57.0403 139.161 57.0403 139.161L55.6964 140.819C55.6964 140.819 49.2163 137.603 49.5523 130.819C49.8883 124.035 53.6805 122.176 53.6805 122.176C53.6805 122.176 56.8489 117.502 64.8643 119.663C72.881 121.824 71.8978 128.7 71.8249 129.714C71.6334 132.377 69.137 132.427 69.137 132.427C69.137 132.427 69.3767 129.613 67.6486 127.954C67.6486 127.954 67.168 129.11 65.4881 129.562C63.8082 130.015 64.6247 128.406 64.9607 127.703C64.9607 127.703 64.0009 129.059 62.4643 129.059C60.9289 129.062 59.2008 128.459 59.2008 128.459Z" fill="#2D2D2D"/>
<path d="M63.2782 146.373C62.5481 146.173 61.4191 145.721 60.0147 144.741C57.4268 142.932 57.8567 139.516 57.8567 139.516C58.9622 142.282 62.4654 143.487 62.4654 143.487L63.0027 143.72C62.9792 143.72 62.957 143.712 62.9335 143.704L63.2176 145.908L63.2782 146.373Z" fill="#414141"/>
<path d="M47.424 150.837C50.8036 150.473 53.3766 154.321 56.6401 161.29C59.9036 168.258 63.3598 178.911 63.3598 178.911C63.3598 178.911 78.7843 177.102 83.7759 172.949C83.7759 172.949 84.8641 168.728 85.6324 167.723C86.4008 166.718 87.8719 165.981 88.8329 165.445C89.7927 164.908 90.4326 164.373 90.4326 164.373L86.6565 174.892C86.6565 174.892 84.0958 177.371 82.6889 178.778C81.2807 180.185 66.1762 188.493 60.1606 186.885C54.145 185.276 46.6557 168.728 45.8244 164.707C44.9931 160.687 43.0723 151.307 47.424 150.837Z" fill="#CACACA"/>
<path d="M47.4239 150.837L47.4363 150.965C47.5795 150.949 47.7204 150.942 47.8599 150.942C48.6283 150.942 49.3533 151.172 50.0648 151.623C51.1321 152.3 52.166 153.479 53.2221 155.117C54.2782 156.754 55.3591 158.849 56.5288 161.345C58.1581 164.822 59.8368 169.225 61.1079 172.757C61.744 174.523 62.2777 176.071 62.6519 177.178C62.8397 177.732 62.9867 178.175 63.088 178.479C63.1893 178.784 63.2424 178.95 63.2424 178.95L63.2745 179.048L63.3733 179.037C63.3758 179.037 67.2347 178.584 71.721 177.61C73.9642 177.124 76.3643 176.507 78.5198 175.751C80.6753 174.994 82.585 174.099 83.8536 173.045L83.8857 173.02L83.8968 172.978C83.8968 172.978 83.9141 172.912 83.945 172.796C84.0537 172.386 84.3378 171.348 84.6775 170.303C84.8467 169.78 85.0308 169.258 85.2123 168.812C85.3939 168.367 85.5767 167.998 85.7299 167.798C86.0992 167.314 86.6489 166.885 87.2258 166.512C87.8039 166.14 88.4091 165.822 88.8909 165.553C89.8605 165.011 90.5053 164.471 90.5103 164.468L90.4337 164.367L90.3176 164.322L86.5414 174.842L86.6576 174.887L86.5736 174.792C86.5736 174.792 84.0129 177.271 82.6035 178.68C82.5306 178.752 82.4096 178.853 82.2478 178.972C81.6375 179.423 80.453 180.151 78.9262 180.987C76.6348 182.24 73.569 183.733 70.4833 184.913C67.399 186.093 64.2923 186.957 61.9355 186.956C61.2919 186.956 60.7052 186.891 60.1913 186.754C58.73 186.366 57.144 185.047 55.5925 183.215C53.2629 180.468 51.0024 176.578 49.2508 173.001C48.375 171.213 47.6252 169.504 47.0558 168.054C46.4864 166.604 46.0985 165.413 45.9453 164.674C45.5167 162.605 44.8015 159.117 44.8027 156.172C44.8027 154.788 44.9621 153.524 45.3734 152.596C45.5785 152.13 45.8453 151.75 46.1825 151.472C46.5209 151.194 46.931 151.015 47.4387 150.961L47.4239 150.837L47.4116 150.709C46.8631 150.767 46.4036 150.965 46.0281 151.274C45.466 151.737 45.0992 152.442 44.8719 153.288C44.6446 154.133 44.5544 155.125 44.5544 156.179C44.5544 159.165 45.2746 162.663 45.7032 164.734C45.9157 165.759 46.5407 167.547 47.456 169.695C48.8284 172.915 50.8505 176.929 53.0986 180.295C54.2227 181.978 55.4023 183.499 56.5894 184.679C57.7764 185.858 58.9697 186.698 60.1296 187.009C60.6694 187.154 61.2759 187.218 61.9342 187.218C63.65 187.218 65.7227 186.776 67.893 186.095C71.1479 185.073 74.6189 183.512 77.3994 182.087C78.7903 181.375 80.007 180.694 80.9384 180.132C81.4041 179.851 81.7981 179.599 82.1082 179.386C82.4182 179.172 82.6418 179 82.774 178.87C83.4768 178.168 84.4687 177.195 85.2852 176.4C85.6928 176.002 86.0572 175.649 86.3191 175.394C86.45 175.267 86.555 175.165 86.6279 175.094C86.7008 175.023 86.7403 174.985 86.7403 174.985L86.7613 174.964L90.7054 163.977L90.3546 164.27L90.3484 164.275C90.278 164.334 89.6654 164.831 88.7748 165.329C88.2967 165.596 87.6865 165.916 87.0961 166.297C86.5056 166.678 85.9349 167.119 85.536 167.64C85.431 167.777 85.3272 167.959 85.2222 168.175C84.8541 168.931 84.465 170.111 84.1649 171.107C83.8659 172.103 83.6572 172.912 83.6572 172.914L83.777 172.947L83.7004 172.846C82.4726 173.868 80.5826 174.759 78.442 175.509C75.2304 176.636 71.4542 177.455 68.4835 177.992C66.9975 178.259 65.7129 178.457 64.8 178.588C64.343 178.652 63.9798 178.702 63.7303 178.734C63.6055 178.749 63.5092 178.762 63.4449 178.77C63.3795 178.778 63.3461 178.782 63.3461 178.782L63.3597 178.91L63.4771 178.868C63.4758 178.866 60.0209 168.213 56.7512 161.231C55.1886 157.895 53.7829 155.27 52.3624 153.469C51.6521 152.569 50.9369 151.873 50.1933 151.401C49.4497 150.929 48.6764 150.682 47.8599 150.683C47.7117 150.683 47.5623 150.691 47.4116 150.708L47.4239 150.837Z" fill="#696969"/>
<path d="M57.5689 189.163C57.5689 189.163 53.8891 202.63 63.1053 209.464C72.3214 216.298 96.1306 201.022 104.578 190.57C104.578 190.57 117.506 209.196 128.515 214.824L133.763 209.732C133.763 209.732 118.915 186.952 111.107 181.725C103.299 176.498 78.4655 186.683 78.4655 186.683C78.4655 186.683 64.065 190.301 57.5689 189.163Z" fill="#696969"/>
<path d="M151.299 211.809C150.787 211.674 150.404 212.211 149.827 212.344C149.251 212.479 142.083 215.025 139.074 215.695L133.763 209.732L128.514 214.824L133.924 219.362C134.484 220.44 135.671 222.508 137.219 223.937C139.395 225.947 141.123 225.076 142.083 224.339C143.043 223.602 144.771 221.593 146.499 220.184C148.227 218.777 150.659 216.164 151.299 214.422C151.939 212.68 151.811 211.943 151.299 211.809Z" fill="#CACACA"/>
<path d="M151.299 211.808L151.329 211.683C151.263 211.666 151.198 211.657 151.135 211.658C151.006 211.658 150.886 211.691 150.774 211.737C150.605 211.808 150.45 211.911 150.292 212.002C150.134 212.096 149.975 212.178 149.801 212.218C149.759 212.229 149.696 212.247 149.61 212.273C148.969 212.471 147.034 213.138 144.904 213.834C142.775 214.531 140.451 215.256 139.05 215.568L139.076 215.694L139.166 215.606L133.77 209.549L128.326 214.832L133.847 219.463L133.925 219.362L133.817 219.424C134.38 220.509 135.571 222.586 137.137 224.034C138.152 224.973 139.09 225.305 139.901 225.305C140.857 225.305 141.626 224.85 142.156 224.444C142.649 224.065 143.319 223.377 144.088 222.607C144.855 221.838 145.717 220.986 146.574 220.288C147.445 219.579 148.489 218.57 149.398 217.516C150.307 216.462 151.081 215.37 151.414 214.47C151.719 213.638 151.855 213.029 151.855 212.584C151.855 212.336 151.812 212.136 151.721 211.982C151.631 211.827 151.489 211.726 151.329 211.684L151.299 211.808L151.269 211.934C151.378 211.964 151.453 212.018 151.511 212.115C151.569 212.213 151.609 212.364 151.609 212.582C151.61 212.971 151.484 213.559 151.184 214.374C150.875 215.216 150.114 216.301 149.215 217.341C148.316 218.381 147.279 219.382 146.423 220.081C145.553 220.789 144.687 221.647 143.917 222.417C143.15 223.188 142.477 223.875 142.01 224.233C141.501 224.623 140.781 225.045 139.901 225.044C139.155 225.042 138.283 224.745 137.3 223.837C135.773 222.428 134.587 220.37 134.033 219.298L134.02 219.275L128.703 214.815L133.756 209.913L139.032 215.835L139.1 215.82C140.614 215.482 143.157 214.678 145.399 213.941C146.52 213.572 147.565 213.221 148.364 212.953C148.764 212.818 149.103 212.706 149.36 212.622C149.488 212.58 149.595 212.546 149.679 212.52C149.763 212.494 149.824 212.476 149.854 212.469C150.135 212.403 150.365 212.255 150.571 212.132C150.674 212.07 150.771 212.014 150.865 211.975C150.959 211.936 151.047 211.914 151.135 211.914C151.178 211.914 151.222 211.92 151.269 211.933L151.299 211.808Z" fill="#696969"/>
<path d="M100.044 213.049C100.044 213.049 98.9533 217.358 98.2999 218.496C97.6452 219.633 95.1018 222.56 95.5379 224.267C95.9739 225.974 97.7984 226.655 100.706 227.387C103.614 228.119 104.041 229.871 105.858 230.603C107.675 231.335 109.765 231.647 110.274 231.239C110.783 230.833 111.554 231.172 112.483 230.1C113.455 228.976 111.395 228.091 110.306 227.118C109.602 226.49 107.751 224.591 105.642 222.64C103.534 220.689 105.73 215.493 105.73 215.493L100.044 213.049Z" fill="#CACACA"/>
<path d="M100.044 213.049L99.9242 213.015C99.9242 213.015 99.9069 213.083 99.876 213.201C99.7673 213.62 99.4869 214.685 99.162 215.768C99.0002 216.31 98.826 216.856 98.6593 217.327C98.4925 217.797 98.3282 218.194 98.1936 218.428C98.0478 218.682 97.7983 219.039 97.5056 219.454C97.0671 220.077 96.5359 220.835 96.111 221.603C95.6873 222.372 95.3649 223.152 95.3636 223.845C95.3636 224.002 95.3809 224.154 95.418 224.301C95.5316 224.747 95.7392 225.131 96.0294 225.459C96.4655 225.953 97.0831 226.327 97.8625 226.649C98.642 226.97 99.5845 227.237 100.676 227.513C102.109 227.875 102.918 228.479 103.61 229.093C103.956 229.401 104.271 229.712 104.618 229.996C104.965 230.279 105.344 230.533 105.813 230.722C107.095 231.238 108.502 231.546 109.431 231.547C109.632 231.547 109.811 231.533 109.965 231.501C110.119 231.468 110.248 231.421 110.348 231.34C110.457 231.254 110.582 231.205 110.732 231.165C110.959 231.104 111.238 231.069 111.553 230.943C111.868 230.818 112.214 230.601 112.573 230.186C112.764 229.966 112.86 229.734 112.858 229.505C112.858 229.249 112.743 229.015 112.575 228.801C112.322 228.479 111.938 228.183 111.535 227.889C111.133 227.597 110.71 227.308 110.385 227.017C110.038 226.707 109.398 226.075 108.584 225.278C107.77 224.482 106.778 223.518 105.724 222.541C105.4 222.242 105.184 221.862 105.045 221.427C104.907 220.994 104.85 220.506 104.85 220.003C104.85 218.955 105.097 217.835 105.346 216.983C105.47 216.556 105.594 216.195 105.688 215.942C105.735 215.815 105.773 215.715 105.8 215.647C105.814 215.613 105.825 215.587 105.831 215.569C105.838 215.552 105.842 215.543 105.842 215.543L105.894 215.422L99.9612 212.869L99.9254 213.011L100.044 213.049L99.997 213.168L105.683 215.613L105.73 215.494L105.617 215.442C105.616 215.446 105.364 216.043 105.111 216.91C104.859 217.778 104.604 218.916 104.604 220.007C104.604 220.531 104.663 221.044 104.812 221.514C104.96 221.982 105.201 222.406 105.562 222.74C106.614 223.713 107.604 224.676 108.418 225.472C109.232 226.269 109.87 226.9 110.227 227.219C110.684 227.626 111.293 228.009 111.781 228.395C112.026 228.587 112.239 228.78 112.386 228.967C112.535 229.158 112.614 229.336 112.613 229.508C112.613 229.662 112.553 229.825 112.39 230.014C111.941 230.531 111.549 230.696 111.19 230.795C111.01 230.843 110.839 230.872 110.672 230.916C110.506 230.96 110.345 231.021 110.198 231.137C110.145 231.18 110.048 231.223 109.916 231.25C109.785 231.277 109.62 231.291 109.429 231.291C108.55 231.293 107.155 230.989 105.9 230.483C105.46 230.306 105.105 230.067 104.769 229.794C104.266 229.384 103.811 228.891 103.205 228.43C102.598 227.968 101.838 227.54 100.732 227.262C99.2806 226.897 98.1046 226.544 97.2486 226.079C96.82 225.846 96.4729 225.586 96.2073 225.285C95.9417 224.983 95.7577 224.641 95.6527 224.235C95.6218 224.113 95.607 223.984 95.607 223.847C95.607 223.442 95.7379 222.971 95.9504 222.481C96.2691 221.744 96.7657 220.963 97.2412 220.269C97.7168 219.574 98.1676 218.969 98.4011 218.563C98.574 218.262 98.7643 217.777 98.9594 217.209C99.5449 215.508 100.158 213.085 100.159 213.083L100.044 213.049L99.997 213.168L100.044 213.049Z" fill="#696969"/>
<path d="M109.537 152.041L103.493 170.332L102.28 173.966C102.196 174.208 102.003 174.393 101.765 174.456L86.3352 178.678C86.0202 178.766 85.7287 178.63 85.5669 178.396C85.4211 178.204 85.3668 177.939 85.452 177.672L86.2735 175.228L93.7924 152.144C93.8924 151.839 94.1531 151.63 94.4606 151.622L107.586 151.067L108.808 151.019C109.329 150.996 109.706 151.526 109.537 152.041Z" fill="#979797"/>
<path d="M109.537 152.041L103.493 170.333L102.28 173.966C102.196 174.208 102.003 174.393 101.764 174.456L86.3351 178.679C86.0201 178.766 85.7286 178.631 85.5668 178.397C88.3695 175.976 96.0354 169.071 101.188 161.689C104.859 156.431 106.694 153.014 107.585 151.069L108.807 151.021C109.329 150.996 109.706 151.526 109.537 152.041Z" fill="#7D7D7D"/>
<path d="M106.41 162.642C106.403 162.629 106.392 162.619 106.384 162.606C106.566 162.413 106.804 162.082 106.709 161.738C106.562 161.204 105.809 160.867 104.747 160.895C103.684 160.925 103.128 161.3 103.351 161.53C103.573 161.76 104.165 162.049 104.823 161.953L104.973 162.142C104.769 162.16 104.553 162.194 104.323 162.253C103.291 162.517 102.823 163.007 103.086 163.183C103.351 163.359 103.987 163.51 104.611 163.271L104.758 163.391C104.6 163.412 104.435 163.44 104.264 163.484C103.232 163.748 102.764 164.238 103.027 164.414C103.291 164.59 103.928 164.741 104.551 164.502L104.896 164.786C104.308 164.982 103.656 165.271 103.771 165.495C103.939 165.822 104.898 165.897 104.898 165.897L104.491 167.229C104.491 167.229 105.763 166.601 106.194 165.923C106.444 165.532 106.368 165.121 106.168 164.857C106.312 164.64 106.529 164.222 106.35 163.875C106.312 163.801 106.257 163.736 106.194 163.677C106.331 163.48 106.603 163.019 106.41 162.642Z" fill="#CACACA"/>
<path d="M106.41 162.642L106.519 162.58C106.508 162.559 106.498 162.546 106.492 162.54L106.487 162.534L106.486 162.535L106.487 162.534L106.486 162.535L106.487 162.534L106.452 162.559L106.488 162.536L106.487 162.534L106.452 162.559L106.488 162.536L106.383 162.605L106.471 162.695C106.552 162.609 106.645 162.496 106.72 162.362C106.794 162.227 106.853 162.071 106.853 161.897C106.853 161.833 106.844 161.767 106.827 161.701C106.785 161.548 106.702 161.412 106.588 161.296C106.416 161.121 106.178 160.989 105.889 160.9C105.599 160.811 105.257 160.763 104.874 160.763C104.83 160.763 104.787 160.763 104.744 160.764C104.28 160.777 103.906 160.854 103.641 160.961C103.507 161.015 103.401 161.076 103.321 161.147C103.281 161.183 103.247 161.222 103.222 161.266C103.197 161.31 103.18 161.363 103.18 161.418C103.179 161.494 103.215 161.568 103.265 161.619C103.379 161.736 103.556 161.852 103.779 161.944C104.002 162.034 104.271 162.099 104.564 162.099C104.655 162.099 104.748 162.093 104.842 162.08L104.824 161.952L104.729 162.034L104.879 162.223L104.974 162.14L104.964 162.011C104.754 162.029 104.531 162.064 104.294 162.125C103.863 162.235 103.525 162.385 103.288 162.54C103.169 162.618 103.075 162.698 103.007 162.78C102.973 162.822 102.945 162.865 102.924 162.91C102.905 162.955 102.891 163.003 102.891 163.055C102.891 163.101 102.903 163.149 102.927 163.19C102.95 163.232 102.984 163.264 103.021 163.29C103.118 163.355 103.249 163.412 103.404 163.453C103.558 163.494 103.738 163.521 103.931 163.521C104.158 163.521 104.407 163.484 104.653 163.39L104.611 163.268L104.534 163.37L104.681 163.49L104.758 163.388L104.743 163.26C104.581 163.281 104.413 163.309 104.234 163.356C103.803 163.466 103.464 163.616 103.227 163.771C103.108 163.849 103.015 163.929 102.947 164.012C102.912 164.053 102.885 164.096 102.864 164.141C102.844 164.186 102.831 164.234 102.831 164.286C102.831 164.332 102.843 164.38 102.866 164.422C102.89 164.463 102.923 164.495 102.96 164.521C103.058 164.586 103.189 164.643 103.343 164.684C103.498 164.725 103.678 164.753 103.871 164.753C104.098 164.753 104.346 164.715 104.592 164.621L104.55 164.499L104.473 164.601L104.818 164.886L104.895 164.784L104.858 164.661C104.582 164.753 104.294 164.864 104.067 164.983C103.953 165.044 103.855 165.104 103.778 165.173C103.74 165.208 103.706 165.243 103.679 165.285C103.653 165.328 103.632 165.38 103.632 165.438C103.632 165.477 103.642 165.518 103.661 165.553C103.693 165.615 103.74 165.666 103.792 165.706C103.883 165.777 103.995 165.827 104.113 165.869C104.466 165.99 104.882 166.021 104.887 166.022L104.896 165.893L104.779 165.853L104.283 167.468L104.54 167.341C104.543 167.34 104.864 167.181 105.243 166.935C105.621 166.688 106.057 166.36 106.294 165.99C106.418 165.796 106.473 165.592 106.472 165.399C106.472 165.159 106.389 164.94 106.262 164.773L106.166 164.853L106.267 164.927C106.323 164.843 106.389 164.729 106.442 164.599C106.496 164.468 106.538 164.318 106.538 164.16C106.538 164.045 106.514 163.924 106.456 163.81C106.408 163.718 106.344 163.643 106.274 163.578L106.192 163.674L106.292 163.75C106.347 163.671 106.421 163.554 106.484 163.413C106.546 163.272 106.598 163.106 106.598 162.929C106.598 162.813 106.575 162.693 106.517 162.579L106.41 162.642L106.302 162.703C106.339 162.775 106.353 162.85 106.353 162.93C106.353 163.052 106.315 163.185 106.262 163.306C106.209 163.424 106.142 163.531 106.094 163.599L106.027 163.693L106.11 163.772C106.167 163.825 106.211 163.878 106.24 163.935C106.277 164.008 106.292 164.083 106.292 164.163C106.292 164.273 106.261 164.39 106.216 164.499C106.172 164.608 106.114 164.709 106.064 164.782L106.013 164.861L106.069 164.936C106.164 165.06 106.226 165.225 106.226 165.4C106.226 165.543 106.188 165.694 106.089 165.848C105.895 166.156 105.478 166.481 105.113 166.717C104.93 166.836 104.76 166.934 104.636 167.003C104.575 167.036 104.524 167.063 104.489 167.082C104.472 167.091 104.459 167.097 104.45 167.102L104.436 167.109L104.489 167.225L104.607 167.265L105.063 165.777L104.907 165.765L104.897 165.764C104.848 165.76 104.612 165.735 104.376 165.677C104.259 165.649 104.14 165.61 104.049 165.565C103.956 165.521 103.895 165.465 103.878 165.43L103.863 165.438H103.879L103.878 165.43L103.863 165.438H103.879H103.867L103.879 165.441V165.438H103.867L103.879 165.441L103.882 165.435C103.888 165.419 103.925 165.375 103.988 165.329C104.082 165.259 104.229 165.183 104.396 165.109C104.562 165.037 104.75 164.967 104.933 164.906L105.155 164.833L104.572 164.353L104.508 164.378C104.292 164.46 104.073 164.493 103.871 164.493C103.699 164.493 103.54 164.469 103.405 164.433C103.27 164.397 103.16 164.348 103.092 164.303C103.081 164.295 103.079 164.29 103.078 164.29V164.286C103.078 164.282 103.079 164.27 103.087 164.252C103.102 164.22 103.138 164.169 103.197 164.115C103.377 163.948 103.753 163.745 104.292 163.608C104.459 163.565 104.617 163.538 104.772 163.518L105.066 163.479L104.633 163.122L104.569 163.146C104.352 163.229 104.134 163.262 103.931 163.262C103.759 163.262 103.6 163.238 103.465 163.202C103.331 163.166 103.221 163.117 103.153 163.071C103.142 163.064 103.139 163.059 103.138 163.059V163.055C103.138 163.051 103.139 163.039 103.148 163.021C103.163 162.989 103.199 162.938 103.258 162.884C103.437 162.717 103.814 162.514 104.352 162.377C104.576 162.32 104.786 162.287 104.984 162.27L105.22 162.249L104.875 161.813L104.807 161.824C104.724 161.835 104.643 161.84 104.562 161.84C104.305 161.84 104.065 161.783 103.868 161.703C103.672 161.623 103.517 161.518 103.438 161.436C103.423 161.419 103.427 161.419 103.426 161.419C103.426 161.419 103.426 161.412 103.433 161.399C103.446 161.376 103.485 161.333 103.551 161.292C103.65 161.229 103.805 161.164 104.008 161.115C104.21 161.066 104.46 161.031 104.75 161.023C104.792 161.022 104.833 161.022 104.874 161.022C105.358 161.022 105.765 161.103 106.061 161.24C106.209 161.309 106.328 161.39 106.415 161.481C106.503 161.571 106.561 161.668 106.589 161.773C106.601 161.816 106.607 161.857 106.607 161.899C106.607 162.01 106.568 162.125 106.508 162.232C106.447 162.34 106.367 162.439 106.295 162.515L106.226 162.588L106.278 162.674C106.289 162.693 106.298 162.702 106.302 162.707L106.304 162.709L106.344 162.678L106.3 162.703L106.304 162.709L106.344 162.678L106.3 162.703L106.41 162.642Z" fill="#696969"/>
<path d="M101.912 164.301C101.481 165.795 100.313 166.748 99.304 166.428C98.2949 166.109 97.8279 164.64 98.259 163.145C98.6901 161.651 99.8574 160.698 100.867 161.018C101.876 161.337 102.343 162.807 101.912 164.301Z" fill="#7D7D7D"/>
<path d="M147.177 224.362C144.028 238.601 129.905 248.474 104.706 250.268C53.825 253.886 25.7925 250.67 15.808 225.342C13.55 219.618 12.6742 212.221 12.7977 204.14C16.6381 205.749 23.7877 210.145 31.5524 221.925C43.0722 239.412 66.3046 248.257 94.3384 244.437C121.617 240.724 138.176 236.624 147.177 224.362Z" fill="#696969"/>
</svg>
