<svg width="195" height="38" viewBox="0 0 195 38" fill="none" xmlns="http://www.w3.org/2000/svg">
<path d="M31.2896 16.0758C30.779 13.0306 29.6439 10.1654 27.9765 7.71279C29.8596 5.15086 32.1203 2.981 34.6576 1.30029C43.8999 25.3472 26.9583 36.4176 26.9583 36.4176H26.6685C30.7492 31.1006 32.347 24.1003 31.2896 16.0758Z" fill="white"/>
<path d="M4.88618 23.9572C8.85285 24.1152 12.7307 25.3358 16.2041 27.5197C15.6954 26.3689 15.3038 25.1557 15.0371 23.9038C13.4706 16.5027 15.6402 7.28473 17.943 0.266602C21.2404 1.56691 24.7807 4.90676 27.2166 8.78098C28.6887 10.9869 29.6913 13.5507 30.146 16.2711C31.3522 25.3822 28.9398 31.9818 25.0235 36.515L24.8512 36.7199C24.8512 36.7199 16.7054 38.2963 10.3376 34.9119C2.96722 30.9754 1.12659 24.4114 1.12659 24.4114C2.35519 24.0625 3.62052 23.9096 4.88618 23.9572Z" fill="white"/>
<path d="M57.8494 28.0137L56.8944 16.7489L53.6076 28.0137H50.4694L47.0339 16.6037L46.2066 28.0137H43.0684L44.7651 10.9115C45.211 10.6468 45.9318 10.4043 46.4408 10.4043C47.6285 10.4043 48.5189 10.8142 48.8793 12.0199L52.4214 24.0327L56.0476 10.9593C56.4935 10.6212 57.0866 10.4043 57.6587 10.4043C58.8675 10.4043 59.4606 10.8859 59.6528 12.5988L61.3495 28.0119H57.8494V28.0137Z" fill="#F1F1F1"/>
<path d="M71.3994 24.4925L72.6923 26.8322C71.3769 27.7732 69.9144 28.2548 68.1336 28.2548C64.7612 28.2548 62.7687 26.0108 62.7687 22.2006C62.7687 18.0523 64.8678 15.5674 68.452 15.5674C71.1457 15.5674 72.7148 17.1113 72.7148 19.644C72.7148 22.081 70.7433 23.5276 67.4549 23.5276C66.988 23.5276 66.5225 23.4798 66.0555 23.4302C66.2883 24.7094 66.988 25.4557 68.3664 25.4557C69.5751 25.4574 70.5496 25.1193 71.3994 24.4925ZM65.991 21.333C66.4789 21.3808 66.9669 21.4047 67.4114 21.4047C68.7688 21.4047 69.5316 20.8258 69.5316 19.813C69.5316 18.9933 69.0225 18.4622 68.1321 18.4622C66.9444 18.4622 66.1606 19.5227 65.991 21.333Z" fill="#F1F1F1"/>
<path d="M75.1086 33.8031L73.6447 31.1253C74.2813 30.8605 74.7468 30.0647 74.7468 28.5447V15.8095H78.0336V29.221C78.0351 31.8494 76.7633 33.079 75.1086 33.8031ZM76.3819 13.9275C77.5066 13.9275 78.2063 13.2034 78.2063 11.9259C78.2063 10.6724 77.5066 9.97217 76.3819 9.97217C75.2573 9.97217 74.5576 10.6724 74.5576 11.9259C74.5576 13.2034 75.2573 13.9275 76.3819 13.9275Z" fill="#F1F1F1"/>
<path d="M79.686 21.9119C79.686 17.9327 81.7852 15.5674 85.3903 15.5674C88.9955 15.5674 91.1172 17.931 91.1172 21.9119C91.1172 25.8929 88.997 28.2565 85.3903 28.2565C81.7837 28.2565 79.686 25.8912 79.686 21.9119ZM87.7868 21.9119C87.7868 19.7891 86.8964 18.5117 85.4114 18.5117C83.9263 18.5117 83.0359 19.7908 83.0359 21.9119C83.0359 24.0348 83.9263 25.2883 85.4114 25.2883C86.8964 25.2883 87.7868 24.0348 87.7868 21.9119Z" fill="#F1F1F1"/>
<path d="M100.484 15.9773L99.5293 19.2819C99.1689 19.0172 98.7019 18.8481 98.1929 18.8481C96.8355 18.8481 95.9872 19.8848 95.9872 22.9008V28.014H92.7003V16.0746C93.2724 15.7843 93.888 15.5674 94.4601 15.5674C95.3505 15.5674 95.8806 16.435 95.8806 17.6902C96.6658 16.1224 97.7469 15.5674 98.8491 15.5674C99.4226 15.5674 99.9962 15.7365 100.484 15.9773Z" fill="#F1F1F1"/>
<path d="M107.103 28.2568C103.625 28.2568 101.546 25.8932 101.546 21.8883C101.546 17.9091 103.837 15.5693 106.827 15.5693C108.142 15.5693 110.262 16.1722 110.941 18.9952L108.544 20.0814C108.268 19.1404 107.759 18.5136 106.996 18.5136C105.66 18.5136 104.876 19.7689 104.876 21.89C104.876 24.0368 105.831 25.2903 107.378 25.2903C108.375 25.2903 109.52 24.8804 110.262 24.2536L111.301 26.8581C110.136 27.823 108.567 28.2568 107.103 28.2568Z" fill="#F1F1F1"/>
<path d="M111.743 21.91C111.743 17.9308 113.842 15.5654 117.447 15.5654C121.052 15.5654 123.174 17.9291 123.174 21.91C123.174 25.8909 121.052 28.2545 117.447 28.2545C113.842 28.2545 111.743 25.8892 111.743 21.91ZM119.843 21.91C119.843 19.7872 118.953 18.5097 117.468 18.5097C115.983 18.5097 115.092 19.7889 115.092 21.91C115.092 24.0328 115.983 25.2864 117.468 25.2864C118.953 25.2864 119.843 24.0328 119.843 21.91Z" fill="#F1F1F1"/>
<path d="M135.169 20.1492V28.012H131.882V20.7999C131.882 19.4012 131.352 18.508 130.355 18.508C128.935 18.508 128.045 19.3756 128.045 21.9339V28.012H124.758V16.0727C125.33 15.7823 125.945 15.5654 126.517 15.5654C127.366 15.5654 127.896 16.3613 127.938 17.5431C128.849 16.0709 130.102 15.5654 131.416 15.5654C133.791 15.5654 135.169 17.2545 135.169 20.1492Z" fill="#F1F1F1"/>
<path d="M147.862 12.0936L146.42 14.7476C145.509 14.0234 144.257 13.494 143.006 13.494C141.839 13.494 141.139 14.073 141.139 14.9901C141.139 16.2197 142.369 16.703 143.854 17.3059C145.869 18.1256 148.245 19.164 148.245 22.636C148.245 26.2053 146.081 28.2564 142.413 28.2564C140.398 28.2564 138.531 27.6057 137.174 26.4478L138.255 23.6982C139.294 24.6153 140.8 25.1704 142.581 25.1704C143.959 25.1704 144.766 24.5197 144.766 23.4335C144.766 22.0587 143.536 21.5515 142.114 20.9982C140.099 20.2023 137.66 19.2135 137.66 15.5468C137.66 12.2183 139.632 10.4097 142.941 10.4097C144.617 10.4063 146.398 10.9613 147.862 12.0936Z" fill="#F1F1F1"/>
<path d="M159.27 20.1529V27.751C158.698 28.0397 158.103 28.2583 157.51 28.2583C156.683 28.2583 156.153 27.4863 156.09 26.3762C155.22 27.775 154.054 28.2583 152.887 28.2583C150.746 28.2583 149.451 26.8356 149.451 24.5198C149.451 21.9632 151.339 20.4671 154.669 20.4671C155.093 20.4671 155.539 20.4671 155.985 20.4911C155.921 19.1641 155.497 18.3682 154.118 18.3682C153.186 18.3682 152.231 18.7064 151.382 19.3332L150.067 17.0173C151.424 16.0763 152.888 15.5708 154.669 15.5708C157.573 15.5691 159.27 17.2581 159.27 20.1529ZM155.982 22.6361C155.536 22.6122 155.133 22.6122 154.752 22.6122C153.352 22.6122 152.567 23.1911 152.567 24.18C152.567 24.9519 152.948 25.507 153.797 25.507C154.921 25.507 155.982 24.7111 155.982 22.6361Z" fill="#F1F1F1"/>
<path d="M161.579 24.7107V9.70742C162.151 9.4188 162.767 9.2002 163.339 9.2002C164.315 9.2002 164.866 9.92432 164.866 10.9371V24.3964C164.866 24.9754 165.142 25.2896 165.629 25.2896C165.968 25.2896 166.287 25.2179 166.54 25.1205L166.965 27.4842C166.245 28.0153 165.501 28.2561 164.59 28.2561C162.704 28.2561 161.579 26.9787 161.579 24.7107Z" fill="#F1F1F1"/>
<path d="M179.598 17.3057V27.7507C179.026 28.0394 178.41 28.258 177.838 28.258C176.99 28.258 176.481 27.4621 176.418 26.3281C175.569 27.7507 174.381 28.258 173.152 28.258C170.776 28.258 169.398 26.5689 169.398 23.6742V16.0761C169.97 15.7857 170.586 15.5688 171.158 15.5688C172.134 15.5688 172.685 16.293 172.685 17.3057V22.9979C172.685 24.4205 173.215 25.2898 174.212 25.2898C175.527 25.2898 176.311 24.4222 176.311 21.9134V16.0761C176.883 15.7857 177.499 15.5688 178.071 15.5688C179.047 15.5688 179.598 16.293 179.598 17.3057Z" fill="#F1F1F1"/>
<path d="M192.364 10.9368V27.7486C191.792 28.0373 191.176 28.2559 190.604 28.2559C189.777 28.2559 189.247 27.46 189.184 26.3499C188.272 27.7726 186.978 28.2559 185.685 28.2559C183.203 28.2559 181.571 26.0613 181.571 22.3212C181.571 18.0516 183.777 15.5667 187.51 15.5667C187.912 15.5667 188.465 15.5906 189.079 15.6145V9.70547C189.651 9.41684 190.266 9.19824 190.838 9.19824C191.811 9.19995 192.364 9.92407 192.364 10.9368ZM189.076 18.3658C188.588 18.3419 188.164 18.3419 187.804 18.3419C186.023 18.3419 184.898 19.8141 184.898 22.3212C184.898 24.2032 185.619 25.3116 186.913 25.3116C188.187 25.3116 189.077 24.4679 189.077 21.9096V18.3658H189.076Z" fill="#F1F1F1"/>
</svg>
