<svg width="194" height="38" viewBox="0 0 194 38" fill="none" xmlns="http://www.w3.org/2000/svg">
<path d="M30.7896 16.0759C30.279 13.0308 29.1439 10.1655 27.4765 7.71294C29.3596 5.15101 31.6203 2.98116 34.1576 1.30045C43.3999 25.3473 26.4583 36.4178 26.4583 36.4178H26.1685C30.2492 31.1008 31.847 24.1004 30.7896 16.0759Z" fill="#FF93C7"/>
<path d="M4.38618 23.9572C8.35285 24.1152 12.2307 25.3358 15.7041 27.5197C15.1954 26.3688 14.8038 25.1557 14.5371 23.9038C12.9706 16.5027 15.1402 7.2847 17.443 0.266571C20.7404 1.56688 24.2807 4.90673 26.7166 8.78095C28.1887 10.9869 29.1913 13.5506 29.646 16.2711C30.8522 25.3822 28.4398 31.9817 24.5235 36.515L24.3512 36.7199C24.3512 36.7199 16.2054 38.2963 9.8376 34.9119C2.46722 30.9753 0.626587 24.4114 0.626587 24.4114C1.85519 24.0625 3.12052 23.9096 4.38618 23.9572Z" fill="#419FB9"/>
<path d="M26.7168 8.78101L26.5836 8.56726C22.7303 14.5867 20.6991 21.8655 20.7954 29.3099C20.7928 31.9131 21.0264 34.5097 21.4925 37.0584C22.4496 37.0117 23.4039 36.9077 24.3513 36.7466C24.414 36.6843 24.4688 36.6041 24.5315 36.5329C28.4477 31.9818 30.8523 25.3823 29.6461 16.2712C29.1915 13.5507 28.1888 10.987 26.7168 8.78101Z" fill="#265E6C"/>
<path d="M57.3494 28.0136L56.3944 16.7488L53.1076 28.0136H49.9694L46.5339 16.6036L45.7066 28.0136H42.5684L44.2651 10.9115C44.711 10.6467 45.4318 10.4042 45.9408 10.4042C47.1285 10.4042 48.0189 10.8141 48.3793 12.0198L51.9214 24.0327L55.5476 10.9593C55.9935 10.6211 56.5866 10.4042 57.1587 10.4042C58.3675 10.4042 58.9606 10.8858 59.1528 12.5988L60.8495 28.0119H57.3494V28.0136Z" fill="#419FB9"/>
<path d="M70.8994 24.4924L72.1923 26.8322C70.8769 27.7732 69.4144 28.2548 67.6336 28.2548C64.2612 28.2548 62.2687 26.0107 62.2687 22.2005C62.2687 18.0522 64.3678 15.5673 67.952 15.5673C70.6457 15.5673 72.2148 17.1112 72.2148 19.6439C72.2148 22.081 70.2433 23.5275 66.9549 23.5275C66.488 23.5275 66.0225 23.4797 65.5555 23.4302C65.7883 24.7093 66.488 25.4556 67.8664 25.4556C69.0751 25.4574 70.0496 25.1192 70.8994 24.4924ZM65.491 21.333C65.9789 21.3808 66.4669 21.4047 66.9114 21.4047C68.2688 21.4047 69.0315 20.8257 69.0315 19.813C69.0315 18.9932 68.5225 18.4621 67.6321 18.4621C66.4444 18.4621 65.6606 19.5227 65.491 21.333Z" fill="#419FB9"/>
<path d="M74.6086 33.8032L73.1447 31.1254C73.7813 30.8607 74.2468 30.0648 74.2468 28.5449V15.8096H77.5336V29.2212C77.5351 31.8495 76.2633 33.0791 74.6086 33.8032ZM75.8819 13.9276C77.0066 13.9276 77.7063 13.2035 77.7063 11.926C77.7063 10.6725 77.0066 9.97229 75.8819 9.97229C74.7573 9.97229 74.0576 10.6725 74.0576 11.926C74.0576 13.2035 74.7573 13.9276 75.8819 13.9276Z" fill="#419FB9"/>
<path d="M79.186 21.9119C79.186 17.9327 81.2852 15.5673 84.8903 15.5673C88.4955 15.5673 90.6172 17.9309 90.6172 21.9119C90.6172 25.8928 88.497 28.2564 84.8903 28.2564C81.2837 28.2564 79.186 25.8911 79.186 21.9119ZM87.2868 21.9119C87.2868 19.7891 86.3964 18.5116 84.9114 18.5116C83.4263 18.5116 82.5359 19.7908 82.5359 21.9119C82.5359 24.0347 83.4263 25.2882 84.9114 25.2882C86.3964 25.2882 87.2868 24.0347 87.2868 21.9119Z" fill="#419FB9"/>
<path d="M99.9842 15.9772L99.0293 19.2818C98.6689 19.0171 98.2019 18.848 97.6929 18.848C96.3355 18.848 95.4872 19.8847 95.4872 22.9007V28.0139H92.2003V16.0745C92.7724 15.7842 93.388 15.5673 93.9601 15.5673C94.8505 15.5673 95.3806 16.4349 95.3806 17.6901C96.1658 16.1224 97.2469 15.5673 98.3491 15.5673C98.9226 15.5673 99.4962 15.7364 99.9842 15.9772Z" fill="#419FB9"/>
<path d="M106.603 28.2572C103.125 28.2572 101.046 25.8936 101.046 21.8887C101.046 17.9095 103.337 15.5698 106.327 15.5698C107.642 15.5698 109.762 16.1726 110.441 18.9957L108.044 20.0818C107.768 19.1408 107.259 18.5141 106.496 18.5141C105.16 18.5141 104.376 19.7693 104.376 21.8904C104.376 24.0372 105.331 25.2907 106.878 25.2907C107.875 25.2907 109.02 24.8808 109.762 24.2541L110.801 26.8585C109.636 27.8234 108.067 28.2572 106.603 28.2572Z" fill="#265E6C"/>
<path d="M111.243 21.9102C111.243 17.931 113.342 15.5657 116.947 15.5657C120.552 15.5657 122.674 17.9293 122.674 21.9102C122.674 25.8912 120.552 28.2548 116.947 28.2548C113.342 28.2548 111.243 25.8895 111.243 21.9102ZM119.343 21.9102C119.343 19.7874 118.453 18.51 116.968 18.51C115.483 18.51 114.592 19.7891 114.592 21.9102C114.592 24.0331 115.483 25.2866 116.968 25.2866C118.453 25.2866 119.343 24.0331 119.343 21.9102Z" fill="#265E6C"/>
<path d="M134.669 20.1495V28.0123H131.382V20.8001C131.382 19.4014 130.852 18.5083 129.855 18.5083C128.435 18.5083 127.545 19.3758 127.545 21.9341V28.0123H124.258V16.0729C124.83 15.7826 125.445 15.5657 126.017 15.5657C126.866 15.5657 127.396 16.3615 127.438 17.5433C128.349 16.0712 129.602 15.5657 130.916 15.5657C133.291 15.5657 134.669 17.2547 134.669 20.1495Z" fill="#265E6C"/>
<path d="M147.362 12.0938L145.92 14.7478C145.009 14.0237 143.757 13.4943 142.506 13.4943C141.339 13.4943 140.639 14.0732 140.639 14.9903C140.639 16.2199 141.869 16.7033 143.354 17.3061C145.369 18.1259 147.745 19.1642 147.745 22.6362C147.745 26.2056 145.581 28.2567 141.913 28.2567C139.898 28.2567 138.031 27.606 136.674 26.4481L137.755 23.6985C138.794 24.6156 140.3 25.1706 142.081 25.1706C143.459 25.1706 144.266 24.52 144.266 23.4338C144.266 22.059 143.036 21.5518 141.614 20.9984C139.599 20.2026 137.16 19.2138 137.16 15.5471C137.16 12.2185 139.132 10.4099 142.441 10.4099C144.117 10.4065 145.898 10.9616 147.362 12.0938Z" fill="#FF93C7"/>
<path d="M158.77 20.1531V27.7513C158.198 28.0399 157.603 28.2585 157.01 28.2585C156.183 28.2585 155.653 27.4865 155.59 26.3765C154.72 27.7752 153.554 28.2585 152.387 28.2585C150.246 28.2585 148.951 26.8359 148.951 24.52C148.951 21.9634 150.839 20.4674 154.169 20.4674C154.593 20.4674 155.039 20.4674 155.485 20.4913C155.421 19.1643 154.997 18.3684 153.618 18.3684C152.686 18.3684 151.731 18.7066 150.882 19.3334L149.567 17.0175C150.924 16.0765 152.388 15.571 154.169 15.571C157.073 15.5693 158.77 17.2583 158.77 20.1531ZM155.482 22.6363C155.036 22.6124 154.633 22.6124 154.252 22.6124C152.852 22.6124 152.067 23.1914 152.067 24.1802C152.067 24.9521 152.448 25.5072 153.297 25.5072C154.421 25.5072 155.482 24.7113 155.482 22.6363Z" fill="#FF93C7"/>
<path d="M161.079 24.711V9.70772C161.651 9.4191 162.267 9.2005 162.839 9.2005C163.815 9.2005 164.366 9.92462 164.366 10.9374V24.3967C164.366 24.9757 164.642 25.2899 165.129 25.2899C165.468 25.2899 165.787 25.2182 166.04 25.1208L166.465 27.4845C165.745 28.0156 165.001 28.2564 164.09 28.2564C162.204 28.2564 161.079 26.979 161.079 24.711Z" fill="#FF93C7"/>
<path d="M179.098 17.3059V27.7509C178.526 28.0395 177.91 28.2581 177.338 28.2581C176.49 28.2581 175.981 27.4623 175.918 26.3283C175.069 27.7509 173.881 28.2581 172.652 28.2581C170.276 28.2581 168.898 26.5691 168.898 23.6743V16.0762C169.47 15.7859 170.086 15.569 170.658 15.569C171.634 15.569 172.185 16.2931 172.185 17.3059V22.998C172.185 24.4206 172.715 25.2899 173.712 25.2899C175.027 25.2899 175.811 24.4223 175.811 21.9136V16.0762C176.383 15.7859 176.999 15.569 177.571 15.569C178.547 15.569 179.098 16.2931 179.098 17.3059Z" fill="#FF93C7"/>
<path d="M191.864 10.9371V27.7489C191.292 28.0375 190.676 28.2561 190.104 28.2561C189.277 28.2561 188.747 27.4603 188.684 26.3502C187.772 27.7728 186.478 28.2561 185.185 28.2561C182.703 28.2561 181.071 26.0616 181.071 22.3214C181.071 18.0519 183.277 15.567 187.01 15.567C187.412 15.567 187.965 15.5909 188.579 15.6148V9.70571C189.151 9.41709 189.766 9.19849 190.338 9.19849C191.311 9.20019 191.864 9.92431 191.864 10.9371ZM188.576 18.3661C188.088 18.3422 187.664 18.3422 187.304 18.3422C185.523 18.3422 184.398 19.8143 184.398 22.3214C184.398 24.2034 185.119 25.3118 186.413 25.3118C187.687 25.3118 188.577 24.4682 188.577 21.9098V18.3661H188.576Z" fill="#FF93C7"/>
</svg>
