<svg width="39" height="38" viewBox="0 0 39 38" fill="none" xmlns="http://www.w3.org/2000/svg">
<path fill-rule="evenodd" clip-rule="evenodd" d="M19.3751 24.1729L7.92819 35.2285C3.92758 37.9355 0.472258 32.8742 2.69986 29.9808C2.89475 29.5902 7.99896 24.7398 14.1097 18.9405C10.0426 14.9048 6.0039 10.9188 2.99783 8.03617C1.1001 6.2164 2.38112 3.43663 2.99822 2.85555C5.04253 0.930557 8.17762 2.85556 8.17762 2.85556L19.45 13.8695C23.6424 9.88291 27.7924 5.91557 30.7863 2.96931C32.6596 1.12581 35.5211 2.37023 36.1193 2.9697C38.1009 4.9556 36.1193 8.00111 36.1193 8.00111L24.7159 19.0147L36.2058 30.2412C38.9924 34.1275 33.7822 37.4841 30.8037 35.3201C30.4003 35.1301 25.3731 30.1371 19.3751 24.1729Z" fill="white"/>
<path d="M7.92819 35.2285L8.7688 36.4708L8.87661 36.3979L8.97025 36.3074L7.92819 35.2285ZM19.3751 24.1729L20.4327 23.1093L19.3903 22.0728L18.333 23.094L19.3751 24.1729ZM2.69986 29.9808L3.88842 30.8958L3.97711 30.7806L4.04202 30.6505L2.69986 29.9808ZM14.1097 18.9405L15.1423 20.0285L16.2634 18.9645L15.1662 17.8758L14.1097 18.9405ZM2.99783 8.03617L4.03603 6.95351L4.03601 6.9535L2.99783 8.03617ZM2.99822 2.85555L4.02653 3.9476L2.99822 2.85555ZM8.17762 2.85556L9.22591 1.78267L9.1057 1.66522L8.96249 1.57729L8.17762 2.85556ZM19.45 13.8695L18.4017 14.9424L19.4359 15.9528L20.4836 14.9565L19.45 13.8695ZM30.7863 2.96931L31.8384 4.03845L31.8384 4.03844L30.7863 2.96931ZM36.1193 2.9697L35.0575 4.02921L35.0575 4.02921L36.1193 2.9697ZM36.1193 8.00111L37.1613 9.08005L37.2838 8.96183L37.3766 8.81918L36.1193 8.00111ZM24.7159 19.0147L23.6738 17.9357L22.5632 19.0084L23.6676 20.0876L24.7159 19.0147ZM36.2058 30.2412L37.4248 29.3671L37.3482 29.2602L37.2541 29.1683L36.2058 30.2412ZM30.8037 35.3201L31.6854 34.1066L31.5709 34.0234L31.4428 33.9631L30.8037 35.3201ZM8.97025 36.3074L20.4171 25.2519L18.333 23.094L6.88613 34.1496L8.97025 36.3074ZM1.5113 29.0657C-0.130479 31.1982 0.403255 33.9759 1.83121 35.6711C2.57033 36.5486 3.61396 37.233 4.86858 37.4379C6.14368 37.646 7.49183 37.3349 8.7688 36.4708L7.08757 33.9862C6.36425 34.4756 5.78025 34.547 5.35192 34.477C4.90311 34.4038 4.47202 34.1496 4.12569 33.7384C3.38272 32.8564 3.30259 31.6567 3.88842 30.8958L1.5113 29.0657ZM13.0771 17.8525C10.0229 20.7511 7.21504 23.4174 5.14627 25.4081C4.11268 26.4026 3.25737 27.2345 2.6459 27.8448C2.34134 28.1488 2.08854 28.4065 1.90161 28.6057C1.80914 28.7042 1.72226 28.7996 1.64955 28.8853C1.61682 28.9238 1.46373 29.0985 1.35769 29.311L4.04202 30.6505C3.96035 30.8142 3.86998 30.9052 3.9364 30.827C3.96287 30.7958 4.01159 30.7413 4.08928 30.6585C4.24265 30.4951 4.46834 30.2644 4.76519 29.9682C5.35653 29.3779 6.19573 28.5615 7.2264 27.5698C9.28614 25.5878 12.0857 22.9293 15.1423 20.0285L13.0771 17.8525ZM1.95962 9.11882C4.95531 11.9915 8.98561 15.9691 13.0531 20.0053L15.1662 17.8758C11.0996 13.8404 7.05249 9.84614 4.03603 6.95351L1.95962 9.11882ZM1.9699 1.7635C1.62629 2.08706 1.3345 2.55365 1.11762 3.00736C0.886237 3.49141 0.679574 4.08729 0.574029 4.74296C0.361598 6.06261 0.551425 7.76847 1.95964 9.11883L4.03601 6.9535C3.5465 6.4841 3.42797 5.89019 3.5359 5.21975C3.59053 4.88037 3.70122 4.55862 3.82429 4.30117C3.96186 4.01337 4.06159 3.91459 4.02653 3.9476L1.9699 1.7635ZM8.17762 2.85556C8.96249 1.57729 8.96202 1.577 8.96154 1.5767C8.96136 1.57659 8.96086 1.57629 8.9605 1.57607C8.95979 1.57563 8.95903 1.57517 8.95821 1.57467C8.95659 1.57368 8.95476 1.57257 8.95274 1.57134C8.94869 1.56889 8.94386 1.56597 8.93824 1.56262C8.92702 1.55591 8.91269 1.54744 8.89538 1.53738C8.86078 1.51728 8.81414 1.49078 8.75651 1.45939C8.64153 1.39675 8.48127 1.31377 8.28439 1.22291C7.89512 1.04325 7.33989 0.822138 6.69287 0.672336C5.43233 0.380491 3.51979 0.304074 1.9699 1.7635L4.02653 3.9476C4.52095 3.48204 5.19811 3.40562 6.0162 3.59503C6.40848 3.68585 6.76479 3.82567 7.02725 3.9468C7.15622 4.00632 7.25686 4.0587 7.32131 4.09381C7.35341 4.1113 7.37611 4.12427 7.38843 4.13143C7.39458 4.13501 7.39811 4.1371 7.39887 4.13756C7.39926 4.13779 7.39895 4.13761 7.39793 4.13699C7.39742 4.13669 7.39674 4.13627 7.39587 4.13574C7.39544 4.13548 7.39496 4.13519 7.39444 4.13487C7.39418 4.13471 7.39375 4.13445 7.39362 4.13437C7.39319 4.1341 7.39274 4.13382 8.17762 2.85556ZM20.4983 12.7966L9.22591 1.78267L7.12932 3.92844L18.4017 14.9424L20.4983 12.7966ZM29.7342 1.90017C26.7506 4.83628 22.6092 8.79543 18.4163 12.7825L20.4836 14.9565C24.6755 10.9704 28.8342 6.99485 31.8384 4.03845L29.7342 1.90017ZM37.1811 1.91018C36.8494 1.57779 36.374 1.29772 35.9139 1.09017C35.4219 0.868233 34.8182 0.670963 34.1562 0.570405C32.835 0.369695 31.1139 0.542353 29.7342 1.90019L31.8384 4.03844C32.3319 3.55277 32.9783 3.42589 33.7057 3.53638C34.068 3.59142 34.409 3.70244 34.6803 3.82482C34.9835 3.96158 35.0901 4.06187 35.0575 4.02921L37.1811 1.91018ZM36.1193 8.00111C37.3766 8.81918 37.3769 8.81871 37.3772 8.81822C37.3773 8.81804 37.3776 8.81754 37.3779 8.81718C37.3783 8.81646 37.3788 8.8157 37.3794 8.81489C37.3804 8.81326 37.3816 8.81144 37.3829 8.80943C37.3855 8.8054 37.3885 8.8006 37.392 8.79505C37.3991 8.78395 37.4079 8.76981 37.4184 8.75277C37.4394 8.7187 37.467 8.67288 37.4996 8.61632C37.5648 8.50351 37.651 8.34633 37.7454 8.15323C37.9319 7.77192 38.1626 7.22583 38.3192 6.58753C38.6266 5.33461 38.701 3.43342 37.1811 1.91018L35.0575 4.02921C35.5191 4.49187 35.5936 5.10639 35.4056 5.8727C35.3145 6.24402 35.1736 6.58342 35.0505 6.8352C34.9901 6.95865 34.937 7.05492 34.9015 7.11642C34.8838 7.14702 34.8708 7.16856 34.8637 7.18008C34.8602 7.18582 34.8581 7.18903 34.8578 7.18957C34.8576 7.18984 34.8579 7.18945 34.8586 7.18836C34.8589 7.18782 34.8594 7.18711 34.8599 7.18622C34.8602 7.18578 34.8605 7.18529 34.8609 7.18476C34.8611 7.1845 34.8613 7.18406 34.8614 7.18393C34.8617 7.18349 34.862 7.18304 36.1193 8.00111ZM25.758 20.0936L37.1613 9.08005L35.0772 6.92217L23.6738 17.9357L25.758 20.0936ZM37.2541 29.1683L25.7642 17.9418L23.6676 20.0876L35.1575 31.3141L37.2541 29.1683ZM29.9221 36.5337C32.0744 38.0974 34.8696 37.5993 36.6001 36.2237C37.497 35.5108 38.2175 34.4874 38.4343 33.2343C38.6555 31.9554 38.3208 30.6166 37.4248 29.3671L34.9868 31.1153C35.4842 31.8089 35.5432 32.3471 35.4782 32.7229C35.4087 33.1245 35.1629 33.5338 34.7333 33.8753C33.8107 34.6087 32.5115 34.7068 31.6854 34.1066L29.9221 36.5337ZM18.3174 25.2366C21.3153 28.2175 24.0756 30.9609 26.137 32.9827C27.167 33.9929 28.0285 34.829 28.6606 35.4268C28.9754 35.7245 29.2421 35.9715 29.4482 36.154C29.5501 36.2443 29.6485 36.3289 29.7365 36.3995C29.7782 36.4329 29.954 36.578 30.1647 36.6772L31.4428 33.9631C31.603 34.0385 31.6923 34.1223 31.6131 34.0589C31.5802 34.0325 31.5233 33.9845 31.4375 33.9084C31.2679 33.7582 31.0288 33.5374 30.7219 33.2471C30.1105 32.6688 29.2647 31.8483 28.2377 30.841C26.1852 28.8278 23.4329 26.0925 20.4327 23.1093L18.3174 25.2366Z" fill="black"/>
</svg>
